<svg width="1200" height="800" viewBox="0 0 1200 800" fill="none" xmlns="http://www.w3.org/2000/svg">
  <defs>
    <linearGradient id="table" x1="0" y1="0" x2="1" y2="1">
      <stop offset="0%" stop-color="#f0e6db"/>
      <stop offset="100%" stop-color="#e7d8c8"/>
    </linearGradient>
    <filter id="shadow" x="-20%" y="-20%" width="140%" height="140%">
      <feDropShadow dx="0" dy="12" stdDeviation="14" flood-color="#5b4c40" flood-opacity="0.18"/>
    </filter>
  </defs>
  <rect width="1200" height="800" fill="url(#table)"/>
  <g filter="url(#shadow)">
    <rect x="160" y="260" width="880" height="120" rx="30" fill="#fffaf4" stroke="#d8c4b3" stroke-width="4"/>
  </g>
  <g>
    <rect x="200" y="280" width="90" height="80" rx="18" fill="#fffaf4" stroke="#d8c4b3" stroke-width="3"/>
    <rect x="300" y="280" width="90" height="80" rx="18" fill="#fffaf4" stroke="#d8c4b3" stroke-width="3"/>
    <rect x="400" y="280" width="90" height="80" rx="18" fill="#fffaf4" stroke="#d8c4b3" stroke-width="3"/>
    <rect x="500" y="280" width="90" height="80" rx="18" fill="#fffaf4" stroke="#d8c4b3" stroke-width="3"/>
    <rect x="600" y="280" width="90" height="80" rx="18" fill="#fffaf4" stroke="#d8c4b3" stroke-width="3"/>
    <rect x="700" y="280" width="90" height="80" rx="18" fill="#fffaf4" stroke="#d8c4b3" stroke-width="3"/>
    <rect x="800" y="280" width="90" height="80" rx="18" fill="#fffaf4" stroke="#d8c4b3" stroke-width="3"/>
  </g>
  <g>
    <path d="M120 520c80-60 160-70 240-20l-40 90c-80-10-140 0-200 40z" fill="#e6c3b6"/>
    <path d="M1080 520c-80-60-160-70-240-20l40 90c80-10 140 0 200 40z" fill="#e6c3b6"/>
  </g>
  <text x="360" y="650" font-family="'Inter', sans-serif" font-size="34" fill="#6b5d52">Hands arranging tiles for the next play</text>
</svg>
