<svg width="1200" height="800" viewBox="0 0 1200 800" fill="none" xmlns="http://www.w3.org/2000/svg">
  <defs>
    <linearGradient id="tile" x1="0" y1="0" x2="1" y2="1">
      <stop offset="0%" stop-color="#fffaf4"/>
      <stop offset="100%" stop-color="#efe1d2"/>
    </linearGradient>
    <filter id="shadow" x="-20%" y="-20%" width="140%" height="140%">
      <feDropShadow dx="0" dy="10" stdDeviation="12" flood-color="#5b4c40" flood-opacity="0.16"/>
    </filter>
  </defs>
  <rect width="1200" height="800" fill="#faf7f2"/>
  <g filter="url(#shadow)">
    <rect x="110" y="180" width="980" height="160" rx="34" fill="#f5eae0"/>
    <rect x="110" y="380" width="980" height="160" rx="34" fill="#f5eae0"/>
  </g>
  <g>
    <rect x="150" y="210" width="90" height="100" rx="18" fill="url(#tile)" stroke="#d8c4b3" stroke-width="3"/>
    <rect x="250" y="210" width="90" height="100" rx="18" fill="url(#tile)" stroke="#d8c4b3" stroke-width="3"/>
    <rect x="350" y="210" width="90" height="100" rx="18" fill="url(#tile)" stroke="#d8c4b3" stroke-width="3"/>
    <rect x="450" y="210" width="90" height="100" rx="18" fill="url(#tile)" stroke="#d8c4b3" stroke-width="3"/>
    <rect x="550" y="210" width="90" height="100" rx="18" fill="url(#tile)" stroke="#d8c4b3" stroke-width="3"/>
    <rect x="650" y="210" width="90" height="100" rx="18" fill="url(#tile)" stroke="#d8c4b3" stroke-width="3"/>
    <rect x="750" y="210" width="90" height="100" rx="18" fill="url(#tile)" stroke="#d8c4b3" stroke-width="3"/>
  </g>
  <g>
    <rect x="150" y="410" width="90" height="100" rx="18" fill="url(#tile)" stroke="#d8c4b3" stroke-width="3"/>
    <rect x="250" y="410" width="90" height="100" rx="18" fill="url(#tile)" stroke="#d8c4b3" stroke-width="3"/>
    <rect x="350" y="410" width="90" height="100" rx="18" fill="url(#tile)" stroke="#d8c4b3" stroke-width="3"/>
    <rect x="450" y="410" width="90" height="100" rx="18" fill="url(#tile)" stroke="#d8c4b3" stroke-width="3"/>
    <rect x="550" y="410" width="90" height="100" rx="18" fill="url(#tile)" stroke="#d8c4b3" stroke-width="3"/>
    <rect x="650" y="410" width="90" height="100" rx="18" fill="url(#tile)" stroke="#d8c4b3" stroke-width="3"/>
    <rect x="750" y="410" width="90" height="100" rx="18" fill="url(#tile)" stroke="#d8c4b3" stroke-width="3"/>
  </g>
  <g>
    <circle cx="195" cy="260" r="14" fill="#d95b5b"/>
    <circle cx="295" cy="260" r="14" fill="#6f9e78"/>
    <circle cx="395" cy="260" r="14" fill="#4f7db1"/>
    <circle cx="495" cy="260" r="14" fill="#d4a574"/>
    <circle cx="595" cy="260" r="14" fill="#d95b5b"/>
    <circle cx="695" cy="260" r="14" fill="#6f9e78"/>
    <circle cx="795" cy="260" r="14" fill="#4f7db1"/>
  </g>
  <text x="310" y="650" font-family="'Inter', sans-serif" font-size="34" fill="#6b5d52">Winning hand layout — clear, organized, confident</text>
</svg>
